<?xml version="1.0" encoding="UTF-8"?>
<!DOCTYPE svg PUBLIC "-//W3C//DTD SVG 1.1//EN" "http://www.w3.org/Graphics/SVG/1.1/DTD/svg11.dtd">
<svg version="1.0" width="600" height="600" version="1.1" xmlns="http://www.w3.org/2000/svg">
<path d="m 299.9436,0 c -26.71054,65.47481 -42.82104,108.30302 -72.55973,171.83152 18.23355,19.3239 40.61435,41.82756 76.96073,67.24332 C 265.26868,222.99838 238.61414,206.85799 218.69477,190.10906 180.63493,269.51182 121.0061,382.61754 0,600 95.10673,545.10357 168.83178,511.25931 237.53998,498.34524 c -2.95035,-12.68706 -4.62775,-26.41059 -4.51382,-40.72959 l 0.11282,-3.04629 c 1.50913,-60.92088 33.2061,-107.76903 70.75421,-104.58816 37.54809,3.1809 66.73386,55.17534 65.22474,116.09628 -0.2838,11.46339 -1.57707,22.49103 -3.83673,32.71905 C 433.24338,512.08866 506.1801,545.84625 600,600 581.50053,565.94763 564.9882,535.25187 549.21948,506.01729 524.38122,486.76962 498.47367,461.71866 445.62723,434.5995 c 36.32361,9.43662 62.33085,20.32395 82.60296,32.49339 C 367.90545,168.65225 354.92256,128.99565 299.9436,0 Z" />
</svg>
