<?xml version="1.0" encoding="UTF-8"?>
<!DOCTYPE svg PUBLIC "-//W3C//DTD SVG 1.1//EN" "http://www.w3.org/Graphics/SVG/1.1/DTD/svg11.dtd">
<svg version="1.0" width="1570" height="100" version="1.1" xmlns="http://www.w3.org/2000/svg">
<path d="M 0,0
m 20,0 l 60,0 c 10,0 20,10 20,20 l 0,3 -20,10 0,-13 -60,0 0,20 60,0 c 10,0 20,10 20,20 l 0,20 c 0,10 -10,20 -20,20 l -60,0 c -10,0 -20,-10 -20,-20 l 0,-3 20,-10 0,13 60,0 0,-20 -60,0 c -10,0 -20,-10 -20,-20 l 0,-20 c 0,-10 10,-20 20,-20 Z
m 100,0
l 100,0 0,20 -40,0 0,80 -20,0 0,-80 -40,0 0,-20 Z
m 100,0
m 0,100 l 50,-100 20,0 50,100 -20,0 -15,-30 -50,0 -15,30 -20,0 Z m 45,-50 l 30,0 -15,-30 -15,30 m -45,-50 Z
m 120,0
l 100,0 0,20 -40,0 0,80 -20,0 0,-80 -40,0 0,-20 Z
m 120,0
l 20,0 0,100 -20,0 0,-100 Z
m 60,0
l 60,0 c 10,0 20,10 20,20 l 0,60 c 0,10 -10,20 -20,20 l -60,0 c -10,0 -20,-10 -20,-20 l 0,-60 c 0,-10 10,-20 20,-20 Z m 0,20 l 0,60 60,0 0,-60 -60,0 m 0,-20 Z
m 100,0
l 17,0 74,69 0,-69 20,0 0,100 -17,0 -74,-69 0,69 -20,0 0,-100 Z
m 220,0
l 20,0 0,80 l 70,0 0,20 -90,0 0,-100 Z
m 140,0
l 60,0 c 10,0 20,10 20,20 l 0,60 c 0,10 -10,20 -20,20 l -60,0 c -10,0 -20,-10 -20,-20 l 0,-60 c 0,-10 10,-20 20,-20 Z m 0,20 l 0,60 60,0 0,-60 -60,0 m 0,-20 Z
m 110,0
m 20,0 l 60,0 c 10,0 20,10 20,20 l 0,10 -20,10 0,-20 -60,0 0,60 60,0 0,-20 20,10 0,10 c 0,10 -10,20 -20,20 l -60,0 c -10,0 -20,-10 -20,-20 l 0,-60 c 0,-10 10,-20 20,-20 Z
m 110,0
l 20,0 0,41.25 49.5,-41.25 30.5,0 -60,50 60,50 -30.5,0 -49.5,-41.25 0,41.25 -20,0 0,-100 Z
m 130,0
l 90,0 0,20 -70,0 0,20 45,0 0,20 -45,0 0,20 70,0 0,20 -90,0 0,-100 Z
m 120,0
l 55,0 c 30,0 45,20 45,50 0,30 -20,50 -45,50 l -55,0 0,-100 Z m 20,20 l 0,60 30,0 c 20,0 30,-10 30,-30 0,-20 -10,-30 -30,-30 l -30,0 Z
" />

</svg>
